<?xml version="1.0" encoding="utf-8"?>
<!-- Generator: Adobe Illustrator 23.0.0, SVG Export Plug-In . SVG Version: 6.00 Build 0)  -->
<svg version="1.1" id="Layer_1" xmlns="http://www.w3.org/2000/svg" xmlns:xlink="http://www.w3.org/1999/xlink" x="0px" y="0px"
	 viewBox="0 0 1232 316" style="enable-background:new 0 0 1232 316;" xml:space="preserve">
<style type="text/css">
	.st0{fill:#FFFFFF;}
	.st1{fill:#335CAA;}
	.st2{fill:#F79764;}
	.st3{fill:#305BAA;}
	.st4{fill:#F8AA72;}
	.st5{fill:#FFFFFF;stroke:#5C86C5;stroke-miterlimit:10;}
	.st6{fill:#F58020;}
	.st7{font-family:'Roboto-Black';}
	.st8{font-size:196.4356px;}
	.st9{fill:#104F9F;}
	.st10{font-size:388.9582px;}
	.st11{fill:none;stroke:#104F9F;stroke-miterlimit:10;}
</style>
<rect x="-201.4" y="-1294.6" class="st0" width="1406.1" height="441.6"/>
<circle class="st1" cx="-272.1" cy="593.4" r="119.4"/>
<circle class="st0" cx="-272.1" cy="593.4" r="90.2"/>
<text transform="matrix(1.065 0 0 1 438.0225 -324.0804)" class="st1 st7" style="font-size:129.9699px;">OUHIGHTECH</text>
<g>
	<g>
		<path class="st2" d="M-26.3-492.1c-3,4.2-8.8,5.1-13,2.1c-4.2-3-5.1-8.8-2.1-13c3-4.2,8.8-5.1,13-2.1
			C-24.2-502-23.2-496.2-26.3-492.1z"/>
		<path class="st2" d="M19.6-442.4c-1.3,1.8-3.8,2.2-5.6,0.9c-1.8-1.3-2.2-3.8-0.9-5.6s3.8-2.2,5.6-0.9
			C20.5-446.7,20.9-444.2,19.6-442.4z"/>
		<path class="st2" d="M11.8-376.8c-4.2,5.8-12.3,7.1-18.1,2.9c-5.8-4.2-7.1-12.3-2.9-18.1c4.2-5.8,12.3-7.1,18.1-2.9
			C14.7-390.7,16-382.6,11.8-376.8z"/>
		<path class="st2" d="M-34.1-335.6c-4.2,5.8-12.3,7.1-18.1,2.9c-5.8-4.2-7.1-12.3-2.9-18.1c4.2-5.8,12.3-7.1,18.1-2.9
			C-31.2-349.4-29.9-341.3-34.1-335.6z"/>
		<path class="st2" d="M-110-382.8c-4.8,6.7-14.2,8.2-20.8,3.3c-6.7-4.8-8.2-14.2-3.3-20.8c4.8-6.7,14.2-8.2,20.8-3.3
			C-106.6-398.8-105.2-389.4-110-382.8z"/>
		<path class="st2" d="M-21.4-423c-6.9,9.5-20.1,11.6-29.6,4.7c-9.5-6.9-11.6-20.1-4.7-29.6c6.9-9.5,20.1-11.6,29.6-4.7
			C-16.7-445.8-14.5-432.5-21.4-423z"/>
		<path class="st2" d="M-87.3-442.4c-1.7,2.3-4.9,2.8-7.2,1.1c-2.3-1.7-2.8-4.9-1.1-7.2c1.7-2.3,4.9-2.8,7.2-1.1
			C-86.2-447.9-85.6-444.6-87.3-442.4z"/>
		<path class="st2" d="M50.6-465.8c-3.7,5-10.7,6.2-15.7,2.5c-5-3.7-6.2-10.7-2.5-15.7c3.7-5,10.7-6.2,15.7-2.5
			C53.1-477.9,54.2-470.9,50.6-465.8z"/>
		<circle class="st2" cx="-134.8" cy="-440.6" r="9"/>
		<path class="st2" d="M-77.7-488.4c-2.4,3.3-6.9,4-10.2,1.6s-4-6.9-1.6-10.2c2.4-3.3,6.9-4,10.2-1.6
			C-76.1-496.2-75.3-491.7-77.7-488.4z"/>
		<circle class="st2" cx="47.1" cy="-397.9" r="9"/>
		
			<ellipse transform="matrix(1.667644e-02 -0.9999 0.9999 1.667644e-02 326.223 -446.6807)" class="st2" cx="-64" cy="-389.2" rx="9" ry="9"/>
	</g>
	<g>
		<g>
			<path class="st2" d="M-44.4-342l-0.6-0.4l-77.8-48.6l-0.1-0.3l-12.9-49.5l0.4-0.4l51.4-52.4l50.4-4.9l0.2,0.1l75.8,25.2l5.8,75.9
				L1.8-383.6L-44.4-342z M-121.3-392.1l76.7,47.8l45.7-41l45.1-13.3l-5.6-73.3l-74.5-24.8l-49.3,4.8l-50.6,51.5L-121.3-392.1z"/>
		</g>
		<g>
			<path class="st2" d="M1.8-382.4l-42-53.7l55.9-9.4l0.4-1.4l0.5,0.7l24.2-26.9l1.3,1.2l-24.6,27.2l30.4,46.3l-1.5,1l-29.6-45.1
				L1.8-382.4z M-37-434.9l37.9,48.5l14.3-57.2L-37-434.9z"/>
		</g>
		<g>
			<path class="st2" d="M-43.9-339.3l-20.7-49l-59-2.4l0.7-1.3l30.4-53.4l-0.1-0.2l0.4-0.4l0.2-0.4l0.2,0l59-53.3l-5,64.2
				L-43.9-339.3z M-63-389.1l17.8,42.2l5.4-84.6L-63-389.1z M-120.6-392.4l55.1,2.2l-26.1-53.3L-120.6-392.4z M-89.9-444.2l25.9,53
				l24-43.7L-89.9-444.2z M-89.5-445.9l50.1,9.4l4.6-58.8L-89.5-445.9z"/>
		</g>
		<g>
			<polygon class="st2" points="15.8,-444.1 -34.4,-496.9 -33.1,-498.1 17.1,-445.3 			"/>
		</g>
		<g>
			<polygon class="st2" points="-134.7,-439.7 -134.9,-441.5 -92.2,-446.2 -84.5,-492.8 -82.7,-492.6 -90.7,-444.6 			"/>
		</g>
	</g>
</g>
<g>
	<g>
		
			<text transform="matrix(1 0 0 1 -349.149 -332.6435)" style="fill:#818285; font-family:'FiraSans-Regular'; font-size:9.3892px;">LOREM IPSUM DOLOR SIT AMET</text>
	</g>
	
		<text transform="matrix(1 0 0 1 -362.3239 -348.7314)" class="st3" style="font-family:'GlacialIndifference-Bold'; font-size:28.648px;">UNIVERSITY</text>
	<g>
		<path class="st3" d="M-233.1-479.1l-16.8-6.5l-0.5,0.2c-5.1,2-28,11.4-33.9,19.9c-5.9-8.5-28.8-17.9-33.9-19.9l-0.5-0.2l-16.8,6.5
			v76.5l40,15.6v-76.9l-35.8-13.9l12.6-4.9c18.9,7.5,28.5,14.2,31.7,18.2h5.2c4.4-5.8,20.8-13.8,31.9-18.2l12.6,4.9l-35.8,13.9v76.9
			l40-15.6V-479.1z"/>
		<path class="st4" d="M-285.2-461c-2.3,0-4.1,1.8-4.1,4.1v2.1l1.3,0l2.3,0h2.4h2.4l1.5,0v-2.1c0-2.2-1.8-4.1-4.1-4.1L-285.2-461z"
			/>
		<polygon class="st4" points="-287.9,-445.9 -287.9,-453.6 -289.2,-453.6 -289.3,-445.9 		"/>
		<polygon class="st4" points="-284.3,-445.9 -283.2,-445.9 -283.2,-453.6 -285.6,-453.6 -285.5,-445.9 		"/>
		<polygon class="st4" points="-279.4,-445.9 -279.4,-453.6 -280.8,-453.6 -280.8,-445.9 -280.8,-445.9 -280.8,-445.9 		"/>
		<polygon class="st4" points="-286,-444.6 -288.1,-444.6 -289.3,-444.6 -289.3,-392.4 -285,-392.4 -285,-444.6 		"/>
		<polygon class="st4" points="-280.4,-444.6 -282.5,-444.6 -283.7,-444.6 -283.7,-392.4 -279.4,-392.4 -279.4,-444.6 		"/>
		<polygon class="st3" points="-284.3,-377.8 -283,-381.5 -285.6,-381.5 		"/>
		<polygon class="st4" points="-279.6,-391.1 -289,-391.1 -286.1,-382.9 -286.1,-382.7 -282.5,-382.7 -282.5,-382.9 		"/>
	</g>
</g>
<image style="overflow:visible;" width="590" height="900" xlink:href="B73CBE17.jpg"  transform="matrix(1 0 0 1 -1378.77 -472.5294)">
</image>
<image style="overflow:visible;" width="491" height="470" xlink:href="C:\Users\Admin\Desktop\803012fbb8e95abfee1baff98ab80afc.png"  transform="matrix(0.75 0 0 0.75 -1378.77 23.8204)">
</image>
<image style="overflow:visible;" width="626" height="626" xlink:href="flat-school-logo-template-collection_23-2148219137.jpg"  transform="matrix(1 0 0 1 -1010.5201 556.2353)">
</image>
<polygon class="st5" points="-708.5,475.8 -777.9,436.4 -706.4,395 -637.1,434.4 "/>
<g>
	<g>
		<path class="st1" d="M291-334.7c0,0,7.6-33.3,58.6-53.5v125.4c0,0-32.9,8.9-58.6,36.1V-334.7z"/>
		<path class="st1" d="M357.2-361.3l12-8.2v124.5c0,0-31-4.1-65.2,14.9c0,0,22.2-17.7,52.9-27.2L357.2-361.3z"/>
		<path class="st1" d="M376.5-344.5l13-8.9v126.7c0,0-32.3-7.9-72.5-3.5c0,0,10.8-8.9,58.9-8.6L376.5-344.5z"/>
	</g>
	<g>
		<path class="st1" d="M285.2-334.7c0,0-7.6-33.3-58.6-53.5v125.4c0,0,32.9,8.9,58.6,36.1V-334.7z"/>
		<path class="st1" d="M219-361.3l-12-8.2v124.5c0,0,31-4.1,65.2,14.9c0,0-22.2-17.7-52.9-27.2L219-361.3z"/>
		<path class="st1" d="M199.7-344.5l-13-8.9v126.7c0,0,32.3-7.9,72.5-3.5c0,0-10.8-8.9-58.9-8.6L199.7-344.5z"/>
	</g>
</g>
<g>
	<g>
		<polygon class="st6" points="483.6,-428.6 486.3,-428.6 486.3,-480.8 483.6,-479.5 		"/>
		<path class="st6" d="M496.1-419.2c0-6.6-4.7-12-10.5-12c-5.8,0-10.5,5.4-10.5,12v34.9h5.6l0.2-24.3l1.5,24.3h2.8l0.3-6.8l0.9,6.8
			h3.1l1.4-25.2l0.9,25.2h4.4V-419.2z"/>
		<ellipse class="st6" cx="485.4" cy="-432.6" rx="5.4" ry="3.1"/>
	</g>
	<g>
		<polygon class="st6" points="495.6,-485.4 500,-486.9 285.4,-542.1 68.1,-483.3 284.5,-415.3 476.2,-479 301.9,-488.5 		"/>
		<path class="st6" d="M168.6-444.2v51.6c0,0,38,47.1,120.4,47.1c77.9,0,109.6-44.4,109.6-44.4V-446l-113.2,40.3L168.6-444.2z"/>
	</g>
</g>
<text transform="matrix(1.0767 0 0 1 265.9414 262.7676)"><tspan x="0" y="0" class="st6 st7 st8">U</tspan><tspan x="130.5" y="0" class="st9 st7 st8">hightech</tspan></text>
<text transform="matrix(1.065 0 0 1 -11.1875 311.1788)" class="st6 st7 st10">O</text>
<g>
	<path class="st6" d="M-267.3-65c0,0,12.6-55.1,97-88.6V54.1c0,0-54.5,14.7-97,59.8V-65z"/>
	<path class="st1" d="M-157.7-109l19.9-13.6V83.4c0,0-51.4-6.8-108,24.6c0,0,36.7-29.4,87.6-45.1L-157.7-109z"/>
	<path class="st1" d="M-125.7-81.2l21.5-14.7v209.8c0,0-53.5-13.1-120.1-5.8c0,0,17.8-14.7,97.5-14.2L-125.7-81.2z"/>
	<path class="st6" d="M-276.9-65c0,0-12.6-55.1-97-88.6V54.1c0,0,54.5,14.7,97,59.8V-65z"/>
	<path class="st1" d="M-386.5-109l-19.9-13.6V83.4c0,0,51.4-6.8,108,24.6c0,0-36.7-29.4-87.6-45.1L-386.5-109z"/>
	<path class="st1" d="M-418.5-81.2L-440-95.9v209.8c0,0,53.5-13.1,120.1-5.8c0,0-17.8-14.7-97.5-14.2L-418.5-81.2z"/>
</g>
<g>
	<g>
		<polygon class="st6" points="-487.5,-770.5 -484.7,-770.5 -484.7,-822.7 -487.5,-821.4 		"/>
		<path class="st6" d="M-475-761.2c0-6.6-4.7-12-10.5-12c-5.8,0-10.5,5.4-10.5,12v34.9h5.6l0.2-24.3l1.5,24.3h2.8l0.3-6.8l0.9,6.8
			h3.1l1.4-25.2l0.9,25.2h4.4V-761.2z"/>
		<ellipse class="st6" cx="-485.6" cy="-774.5" rx="5.4" ry="3.1"/>
	</g>
	<g>
		<polygon class="st6" points="-475.5,-827.3 -471,-828.8 -685.6,-884 -902.9,-825.2 -686.5,-757.3 -494.8,-820.9 -669.1,-830.5 		
			"/>
		<path class="st6" d="M-802.4-786.1v51.6c0,0,38,47.1,120.4,47.1c77.9,0,109.6-44.4,109.6-44.4v-56.1l-113.2,40.3L-802.4-786.1z"/>
	</g>
</g>
<g>
	<path class="st9" d="M-30.8-659.4c0-0.6,0-1.2,0-1.8c0-32.4,0-64.8,0-97.2c0-0.7,0.1-1.1,0.7-1.6c3.5-2.4,6.9-5,10.4-7.3
		c5.3-3.5,11-6.3,16.9-8.6c5.5-2.2,11.1-4.1,17-5.3c2.7-0.6,5.4-1,8-1.4c2.5-0.4,5-0.7,7.4-1c0.1,0,0.1,0,0.2,0
		c2.9-0.1,5.8-0.2,8.7-0.2c1.6,0,3.2,0.2,5,0.3c0,0.8,0,1.6,0,2.4c0,26.4,0,52.7,0.1,79.1c0,1.8-0.9,2.5-2,3.4
		c-0.9,0.7-1.7,1.4-2.6,2.1c-2,1.5-4.1,3.1-6.2,4.6c-2.2,1.6-4.4,3.3-6.7,4.8c-3.9,2.5-7.9,4.8-11.9,7.1c-1.8,1.1-3.6,2.2-5.5,3.2
		c-3.3,1.7-6.5,3.4-9.8,4.9c-6.1,2.8-12.3,5.5-18.5,8.3c-2.6,1.1-5.2,2.1-7.8,3.1C-28.5-660.2-29.7-659.8-30.8-659.4z"/>
	<path class="st9" d="M-82.7-700.9c-4.6,3.2-9.2,6.3-13.7,9.6c-3,2.2-5.9,4.6-8.8,6.9c-2.4,2-4.6,4.1-6.9,6.1
		c-1.1,1-2.3,1.8-3.3,2.9c-2.5,2.7-4.7,5.6-7.3,8.2c-2.6,2.5-4.2,5.6-6.2,8.5c-1,1.5-1.6,3.2-2.5,4.8c-1.2,2.3-1.6,4.8-2.1,7.3
		c-0.4,2.3-0.3,4.6,0.3,6.8c0.4,1.4,1.1,2.8,1.9,3.9c1.8,2.6,4.2,4.7,7.1,6c3.7,1.7,7.6,3,11.6,3.5c2.9,0.4,5.8,0.5,8.7,0.6
		c1.8,0.1,3.6,0.2,5.4,0.2c3-0.1,6.1-0.4,9.1-0.6c2-0.1,4-0.2,6-0.4c1.9-0.2,3.9-0.5,5.8-0.8c2.5-0.4,5-0.9,7.4-1.4
		c2.9-0.6,5.7-1.2,8.6-1.7c-1.2,0.3-2.4,0.7-3.6,1c-3.3,0.8-6.5,1.7-9.8,2.5c-4.2,1-8.4,1.8-12.7,2.7c-2.9,0.6-5.8,1.2-8.8,1.8
		c-3,0.5-6,1-9.1,1.5c-2.7,0.4-5.5,0.9-8.2,1.2c-2.4,0.3-4.8,0.3-7.1,0.7c-5.2,0.7-10.4,0.6-15.6,0.6c-4,0-8.1-0.1-12.1-1
		c-2.4-0.5-4.8-0.8-7.1-1.4c-4-1.1-7.7-2.9-10.6-6.1c-1.9-2-2.6-4.2-2.9-6.7c-0.5-3.7,0.6-7.1,2.4-10.2c1.5-2.7,3.4-5.1,5.2-7.6
		c1-1.4,2-2.8,3.2-4c2.3-2.3,4.6-4.6,7-6.8c1.5-1.4,3.1-2.8,4.7-4.1c2.5-2,5-4,7.5-5.9c2.2-1.7,4.3-3.5,6.6-5
		c5.8-3.8,11.6-7.6,17.5-11.3c3.7-2.3,7.5-4.4,11.4-6.5c4.6-2.6,9.3-5.1,13.9-7.5c2.2-1.1,4.3-2.2,6.5-3.3c0.6-0.3,0.8-0.6,0.8-1.3
		c0-14.3,0-28.6,0-42.9c0-0.3,0-0.6,0-1c14.4-6.7,29.5-8.9,45.4-5.9c0,0.2,0,0.6,0,0.9c0,32.6,0,65.3,0,97.9c0,0.8-0.3,1-0.9,1.2
		c-5.8,1.6-11.5,3.2-17.2,4.7c-2.1,0.6-4.2,1.1-6.3,1.5c-1.7,0.3-3.4,0.5-5.2,0.8c-2.2,0.3-4.4,0.5-6.6,0.8
		c-0.8,0.1-1.5,0.2-2.3,0.2c-2.3,0-4.5,0-6.9,0c0-17.1,0-34.4,0-51.6C-82.5-700.8-82.6-700.9-82.7-700.9z"/>
	<path class="st9" d="M-8-648.4c1.9-0.8,3.6-1.6,5.4-2.4c3.5-1.6,7-3.2,10.4-5c5.4-2.8,10.6-5.8,16-8.6c6-3.2,11.7-6.8,17.3-10.6
		c2.9-1.9,5.7-3.9,8.5-5.9c3.5-2.5,6.9-5.1,10.3-7.7c1.6-1.2,3.1-2.6,4.6-4c2.7-2.5,5.4-5.1,8.1-7.7c1-1,1.9-2.2,2.9-3.3
		c1.7-1.9,3.4-3.8,5-5.8c1.4-1.9,2.7-3.9,3.9-5.9c1.4-2.3,2.8-4.7,3.8-7.2c0.8-2.1,1-4.4,1.5-6.6c0.4-2.2,0.2-4.3-0.4-6.5
		c-0.7-2.7-2.2-5-4.4-6.8c-1.2-1-2.5-1.8-3.8-2.6c-2.6-1.7-5.4-2.7-8.4-3.2c-3.5-0.7-7-1.1-10.5-1.6c0,0-0.1,0-0.1,0
		c-2.6-0.1-5.3-0.1-7.9-0.2c-0.1,0-0.2,0-0.4,0.1c0,0.4,0,0.8,0,1.1c0,12,0,23.9,0,35.9c0,1-0.2,1.8-0.8,2.6
		c-1.8,2.1-3.5,4.2-5.5,6.2c0-26.4,0-52.8,0-79.2c2,0.2,4.1,0.4,6.3,0.6c0,10.1,0,20.1,0,30.3c1.6-0.3,3.1-0.5,4.6-0.7
		c2.1-0.3,4.2-0.6,6.4-0.9c2.4-0.3,4.8-0.6,7.2-0.8c1.8-0.2,3.6-0.3,5.4-0.4c5.3-0.2,10.7-0.4,16-0.4c3.6,0,7.1,0.2,10.6,1.1
		c2.6,0.7,5.3,1.1,7.8,2c2.6,0.9,5,2.1,7.2,3.9c1.2,1,2.2,2.2,2.9,3.5c0.7,1.4,1.3,3.1,1.4,4.7c0.5,4.5-1.4,8.5-3.6,12.2
		c-2,3.3-4.2,6.6-7.1,9.3c-0.8,0.8-1.7,1.6-2.5,2.4c-0.9,1-1.8,2.1-2.8,3c-2,1.8-4.1,3.6-6.1,5.3c-2.2,1.9-4.4,3.7-6.7,5.5
		c-2.2,1.7-4.4,3.4-6.6,5c-2.2,1.6-4.5,3.2-6.8,4.7c-4.4,2.8-8.8,5.6-13.2,8.3c-2.7,1.6-5.4,3.2-8.2,4.8c-2.9,1.6-5.8,3.2-8.7,4.7
		c-2.7,1.4-5.4,2.9-8.1,4.3c-5.6,2.8-11.2,5.5-16.9,8.2c-3.3,1.6-6.7,3.1-10.1,4.5c-2.8,1.2-5.7,2.4-8.5,3.6c-5,2.1-10,4.2-15,6.2
		C-7.8-648.3-7.9-648.3-8-648.4z"/>
	<path class="st9" d="M43.5-664.8c0,10.3,0,20.5,0,30.7c-1.6,0-3.1,0-4.6,0c-2.1,0-4.2,0-6.4,0c-0.9,0-1.7,0.2-2.6,0.2
		c-3.9,0.2-7.7,0.8-11.5,1.4c-4.4,0.6-8.6,1.9-12.8,3.1c-2.5,0.7-4.8,1.7-7.2,2.7c-3.5,1.5-6.9,2.9-10.3,4.5
		c-2.7,1.3-5.3,2.6-7.8,4.2c-2.5,1.6-4.9,3.5-7.2,5.3c-2.2,1.7-4.3,3.5-6.4,5.2c-0.4,0.3-0.8,0.5-1.5,0.4c-3-0.5-6.1-1-9.2-1.2
		c-3.9-0.3-7.7-0.6-11.6-0.4c-3.4,0.2-6.8,1-10.1,1.5c-4.8,0.7-9.3,2.4-13.7,4.3c-0.9,0.4-1.9,0.7-3,1.1c0-5.8,0-11.6,0-17.6
		C-38.5-629,3.1-644.9,43.5-664.8z"/>
	<path class="st9" d="M-82.3-590.9c0-2.2,0-4.2,0-6.6c4-1.5,8.1-3,12.3-4.4c2.4-0.8,4.8-1.2,7.3-1.6c4.9-0.8,9.8-1,14.7-0.8
		c3.6,0.1,7.1,0.5,10.6,1.4c1.3,0.3,2.7,0.7,4,1c0.2,0.1,0.6,0,0.7-0.1c0.8-0.6,1.5-1.4,2.2-2c2.9-2.4,5.7-4.9,8.8-7.1
		c3.4-2.4,6.9-4.6,10.5-6.7c2.8-1.6,5.9-3,8.9-4.4c2.8-1.2,5.6-2.4,8.5-3.2c4.8-1.4,9.7-2.6,14.6-3.8c2-0.5,4.2-0.6,6.3-0.8
		c3-0.3,5.9-0.5,8.9-0.6c3-0.1,5.9,0,8.9,0c0.8,0,1.6,0.2,2.5,0.3c0-0.6,0-1.1,0-1.6c0-11.3,0-22.5,0-33.8c0-0.7,0.2-1.1,0.8-1.4
		c1.8-0.8,3.6-1.8,5.5-2.7c0,15.1,0,30.1,0,45.1c-1.1,0-2.2,0.1-3.3,0c-1-0.1-2-0.3-2.9-0.4c-2.5-0.1-5.1-0.2-7.6-0.2
		c-2.5,0-4.9,0.2-7.4,0.4c-4.1,0.4-8.1,0.9-12.1,1.8c-4.6,1.1-9.2,2.4-13.7,4c-2.8,1-5.6,2.1-8.3,3.5c-3.4,1.7-6.8,3.5-10,5.4
		c-2.6,1.6-4.9,3.5-7.4,5.2c-3,2.2-5.8,4.6-8.4,7.2c-1.3,1.3-2.6,2.5-3.9,3.7c-0.4,0.5-0.8,0.4-1.3,0.2c-3.8-1.1-7.7-2.3-11.5-3.3
		c-1.3-0.4-2.7-0.4-4.1-0.5c-2.6-0.1-5.2-0.2-7.8-0.2c-3.9,0-7.8,0.4-11.5,1.4c-2.9,0.8-5.8,1.6-8.6,2.6c-1.9,0.7-3.7,1.7-5.5,2.5
		C-81.9-591.2-82.1-591.1-82.3-590.9z"/>
</g>
<text transform="matrix(1 0 0 1.2 154.6712 -708.8655)" class="st9 st7" style="font-size:50.1229px;">TRƯỜNG ĐẠI HỌC MỞ TP. HỒ CHÍ MINH</text>
<line class="st11" x1="156.6" y1="-689.2" x2="1057.6" y2="-689.2"/>
<text transform="matrix(1.0153 0 0 1 161.3099 -630.01)" class="st9" style="font-family:'Roboto-Light'; font-size:46.592px; letter-spacing:66;">OUHIGHTECH</text>
<text transform="matrix(1.065 0 0 1 1634.7596 -72.3516)"><tspan x="0" y="0" class="st6 st7" style="font-size:154.5804px;">U</tspan><tspan x="102.7" y="0" class="st1 st7" style="font-size:154.5804px;">hightech</tspan></text>
<text transform="matrix(1.065 0 0 1 1391.989 -2.441406e-04)" class="st6 st7" style="font-size:344.1875px;">O</text>
<g>
	<g>
		<g>
			<polygon class="st1" points="1684.8,-213.8 1686.2,-213.8 1686.2,-240.3 1684.8,-239.6 			"/>
			<path class="st1" d="M1691.1-209.1c0-3.4-2.4-6.1-5.3-6.1c-2.9,0-5.3,2.7-5.3,6.1v17.7h2.9l0.1-12.3l0.8,12.3h1.4l0.2-3.4
				l0.5,3.4h1.6l0.7-12.8l0.5,12.8h2.2V-209.1z"/>
			<ellipse class="st1" cx="1685.7" cy="-215.9" rx="2.7" ry="1.6"/>
		</g>
		<g>
			<polygon class="st1" points="1690.9,-242.6 1693.1,-243.4 1584.4,-271.4 1474.2,-241.6 1583.9,-207.1 1681.1,-239.4 
				1592.7,-244.2 			"/>
			<path class="st1" d="M1525.2-221.7v26.2c0,0,19.3,23.9,61,23.9c39.5,0,55.5-22.5,55.5-22.5v-28.5l-57.4,20.4L1525.2-221.7z"/>
		</g>
	</g>
</g>
<path class="st0" d="M143.8,61.8V44.2l86.7,30.6l3.8,4.6l-5.2,16.6c0,0-32.3,3-32.8,3C195.7,98.9,143.8,61.8,143.8,61.8z"/>
<g>
	<g>
		<polygon class="st9" points="338.2,71.6 339.9,71.6 339.9,38.7 338.2,39.5 		"/>
		<path class="st9" d="M345.9,77.5c0-4.2-2.9-7.6-6.5-7.6c-3.6,0-6.5,3.4-6.5,7.6v22h3.5l0.1-15.3l0.9,15.3h1.7l0.2-4.3l0.6,4.3h1.9
			l0.8-15.9l0.6,15.9h2.7V77.5z"/>
		<ellipse class="st9" cx="339.3" cy="69.1" rx="3.3" ry="1.9"/>
	</g>
	<g>
		<polygon class="st9" points="345.6,35.8 348.3,34.8 215.9,0 81.8,37.1 215.3,80 333.6,39.8 226.1,33.8 		"/>
		<path class="st9" d="M143.8,61.8v32.6c0,0,23.5,29.7,74.3,29.7c48.1,0,67.6-28,67.6-28V60.6l-69.9,25.4L143.8,61.8z"/>
	</g>
</g>
</svg>
